PathFileType	4	(X/Y/Z)	 New Session 107.trc
DataRate	CameraRate	NumFrames	NumMarkers	Units	OrigDataRate	OrigDataStartFrame	OrigNumFrames
100	100	27	14	m	100	341	909
Frame#	Time	C7			T8			IJ			PX			AA			AC			AI			TS			SC			GH			LE			ME			US			RS			
		X1	Y1	Z1	X2	Y2	Z2	X3	Y3	Z3	X4	Y4	Z4	X5	Y5	Z5	X6	Y6	Z6	X7	Y7	Z7	X8	Y8	Z8	X9	Y9	Z9	X10	Y10	Z10	X11	Y11	Z11	X12	Y12	Z12	X13	Y13	Z13	X14	Y14	Z14	
341	3.4100	-0.016266	0.109942	0.142407	-0.018549	-0.101179	0.226035	-0.002257	-0.002236	-0.017437	0.007213	-0.146549	-0.078388	0.159094	0.031976	0.186092	0.136423	0.070201	0.099141	0.048746	0.039524	0.205513	0.055686	-0.081076	0.238190	0.021366	0.007184	-0.009791	0.179476	0.050175	0.156088	0.312039	-0.190756	0.235082	0.304346	-0.245983	0.156917	0.557944	-0.343773	0.236485	0.573719	-0.273567	0.263909	
342	3.4200	-0.016260	0.109964	0.142557	-0.018428	-0.101167	0.226230	-0.002536	-0.002248	-0.017357	0.006907	-0.146525	-0.078314	0.158965	0.032004	0.186181	0.136263	0.070265	0.099219	0.048708	0.039490	0.205650	0.055743	-0.080976	0.238468	0.021213	0.007244	-0.009728	0.179322	0.050256	0.156202	0.312031	-0.190717	0.234935	0.304556	-0.245804	0.156560	0.558007	-0.343705	0.236132	0.573765	-0.273509	0.263547	
343	3.4300	-0.016263	0.109984	0.142717	-0.018271	-0.101174	0.226463	-0.002846	-0.002236	-0.017242	0.006585	-0.146504	-0.078230	0.158842	0.032032	0.186277	0.136120	0.070324	0.099301	0.048672	0.039455	0.205789	0.055802	-0.080902	0.238719	0.021035	0.007313	-0.009642	0.179174	0.050339	0.156334	0.312011	-0.190714	0.234783	0.304648	-0.245684	0.156275	0.558061	-0.343660	0.235761	0.573809	-0.273447	0.263145	
344	3.4400	-0.016271	0.109999	0.142886	-0.018104	-0.101205	0.226711	-0.003163	-0.002208	-0.017108	0.006248	-0.146487	-0.078134	0.158735	0.032055	0.186375	0.135994	0.070375	0.099395	0.048642	0.039414	0.205927	0.055864	-0.080876	0.238898	0.020807	0.007371	-0.009532	0.179037	0.050411	0.156479	0.311988	-0.190749	0.234630	0.304583	-0.245645	0.156087	0.558107	-0.343636	0.235363	0.573860	-0.273387	0.262680	
345	3.4500	-0.016273	0.110011	0.143064	-0.017953	-0.101251	0.226948	-0.003466	-0.002174	-0.016968	0.005900	-0.146475	-0.078026	0.158651	0.032067	0.186472	0.135884	0.070414	0.099501	0.048607	0.039369	0.206063	0.055923	-0.080902	0.238993	0.020527	0.007399	-0.009398	0.178917	0.050458	0.156628	0.311970	-0.190819	0.234480	0.304388	-0.245694	0.155975	0.558147	-0.343635	0.234922	0.573926	-0.273333	0.262134	
346	3.4600	-0.016266	0.110018	0.143245	-0.017829	-0.101301	0.227150	-0.003744	-0.002140	-0.016824	0.005551	-0.146466	-0.077906	0.158591	0.032058	0.186567	0.135789	0.070435	0.099613	0.048559	0.039332	0.206201	0.055981	-0.080965	0.239022	0.020219	0.007388	-0.009243	0.178815	0.050470	0.156775	0.311961	-0.190919	0.234332	0.304131	-0.245821	0.155896	0.558180	-0.343657	0.234415	0.574011	-0.273292	0.261494	
347	3.4700	-0.016249	0.110018	0.143429	-0.017723	-0.101351	0.227313	-0.003996	-0.002109	-0.016673	0.005211	-0.146459	-0.077774	0.158552	0.032021	0.186657	0.135716	0.070436	0.099721	0.048502	0.039303	0.206351	0.056044	-0.081047	0.239030	0.019925	0.007346	-0.009079	0.178733	0.050446	0.156911	0.311962	-0.191038	0.234185	0.303863	-0.246015	0.155815	0.558212	-0.343700	0.233824	0.574121	-0.273261	0.260746	
348	3.4800	-0.016226	0.110008	0.143613	-0.017627	-0.101401	0.227452	-0.004228	-0.002086	-0.016511	0.004889	-0.146452	-0.077632	0.158532	0.031959	0.186738	0.135666	0.070420	0.099815	0.048482	0.039246	0.206504	0.056122	-0.081129	0.239060	0.019674	0.007296	-0.008923	0.178675	0.050393	0.157024	0.311977	-0.191169	0.234040	0.303600	-0.246265	0.155725	0.558255	-0.343754	0.233145	0.574260	-0.273238	0.259869	
349	3.4900	-0.016200	0.109987	0.143797	-0.017531	-0.101453	0.227584	-0.004440	-0.002078	-0.016336	0.004589	-0.146442	-0.077483	0.158533	0.031882	0.186803	0.135640	0.070388	0.099885	0.048534	0.039144	0.206637	0.056220	-0.081197	0.239133	0.019466	0.007260	-0.008784	0.178646	0.050320	0.157104	0.312013	-0.191309	0.233898	0.303328	-0.246565	0.155641	0.558326	-0.343804	0.232358	0.574432	-0.273221	0.258838	
350	3.5000	-0.016175	0.109958	0.143980	-0.017428	-0.101503	0.227720	-0.004633	-0.002090	-0.016150	0.004311	-0.146431	-0.077327	0.158562	0.031803	0.186843	0.135636	0.070344	0.099924	0.048633	0.039024	0.206747	0.056335	-0.081247	0.239234	0.019285	0.007255	-0.008661	0.178654	0.050237	0.157139	0.312070	-0.191460	0.233763	0.303025	-0.246909	0.155583	0.558428	-0.343850	0.231414	0.574634	-0.273211	0.257635	
351	3.5100	-0.016149	0.109925	0.144166	-0.017310	-0.101551	0.227861	-0.004813	-0.002126	-0.015957	0.004048	-0.146420	-0.077163	0.158629	0.031731	0.186854	0.135654	0.070286	0.099922	0.048737	0.038928	0.206846	0.056458	-0.081287	0.239332	0.019117	0.007281	-0.008546	0.178703	0.050148	0.157128	0.312145	-0.191629	0.233629	0.302672	-0.247291	0.155566	0.558563	-0.343900	0.230251	0.574858	-0.273211	0.256240	
352	3.5200	-0.016122	0.109891	0.144354	-0.017171	-0.101600	0.228006	-0.004992	-0.002186	-0.015764	0.003795	-0.146412	-0.076993	0.158739	0.031672	0.186837	0.135696	0.070216	0.099878	0.048847	0.038870	0.206924	0.056583	-0.081329	0.239398	0.018942	0.007316	-0.008425	0.178792	0.050057	0.157075	0.312232	-0.191826	0.233480	0.302267	-0.247710	0.155588	0.558723	-0.343959	0.228828	0.575093	-0.273226	0.254636	
353	3.5300	-0.016093	0.109857	0.144544	-0.017018	-0.101651	0.228148	-0.005185	-0.002267	-0.015575	0.003543	-0.146413	-0.076814	0.158888	0.031628	0.186797	0.135757	0.070133	0.099795	0.048977	0.038839	0.206979	0.056712	-0.081386	0.239428	0.018745	0.007327	-0.008291	0.178919	0.049963	0.156992	0.312324	-0.192057	0.233291	0.301815	-0.248164	0.155629	0.558889	-0.344038	0.227125	0.575336	-0.273259	0.252802	
354	3.5400	-0.016059	0.109822	0.144736	-0.016861	-0.101708	0.228286	-0.005412	-0.002357	-0.015387	0.003289	-0.146425	-0.076627	0.159068	0.031594	0.186747	0.135828	0.070033	0.099686	0.049120	0.038823	0.207024	0.056850	-0.081462	0.239441	0.018535	0.007302	-0.008145	0.179076	0.049863	0.156889	0.312420	-0.192324	0.233037	0.301328	-0.248660	0.155654	0.559050	-0.344146	0.225134	0.575589	-0.273319	0.250711	
355	3.5500	-0.016015	0.109786	0.144934	-0.016708	-0.101772	0.228416	-0.005679	-0.002445	-0.015192	0.003031	-0.146449	-0.076431	0.159265	0.031567	0.186698	0.135900	0.069916	0.099571	0.049265	0.038816	0.207079	0.056990	-0.081541	0.239469	0.018328	0.007251	-0.007995	0.179255	0.049758	0.156772	0.312527	-0.192628	0.232693	0.300810	-0.249202	0.155625	0.559198	-0.344291	0.222871	0.575854	-0.273413	0.248338	
356	3.5600	-0.015964	0.109751	0.145142	-0.016559	-0.101846	0.228540	-0.005974	-0.002519	-0.014986	0.002768	-0.146485	-0.076224	0.159461	0.031545	0.186658	0.135969	0.069791	0.099471	0.049411	0.038817	0.207153	0.057117	-0.081593	0.239553	0.018130	0.007191	-0.007840	0.179444	0.049645	0.156646	0.312656	-0.192964	0.232243	0.300266	-0.249786	0.155507	0.559335	-0.344475	0.220367	0.576134	-0.273551	0.245659	
357	3.5700	-0.015911	0.109720	0.145362	-0.016413	-0.101928	0.228672	-0.006272	-0.002572	-0.014768	0.002502	-0.146531	-0.076004	0.159641	0.031523	0.186631	0.136031	0.069668	0.099402	0.049550	0.038823	0.207254	0.057216	-0.081591	0.239715	0.017929	0.007140	-0.007674	0.179631	0.049527	0.156518	0.312819	-0.193328	0.231680	0.299699	-0.250394	0.155272	0.559474	-0.344695	0.217623	0.576427	-0.273740	0.242652	
358	3.5800	-0.015866	0.109695	0.145588	-0.016273	-0.102003	0.228842	-0.006551	-0.002600	-0.014541	0.002238	-0.146581	-0.075773	0.159801	0.031496	0.186618	0.136079	0.069556	0.099368	0.049679	0.038824	0.207376	0.057290	-0.081551	0.239927	0.017722	0.007113	-0.007488	0.179808	0.049403	0.156391	0.313019	-0.193718	0.231003	0.299118	-0.251003	0.154897	0.559616	-0.344950	0.214599	0.576734	-0.273981	0.239317	
359	3.5900	-0.015838	0.109681	0.145820	-0.016144	-0.102055	0.229073	-0.006795	-0.002609	-0.014308	0.001980	-0.146632	-0.075530	0.159943	0.031458	0.186616	0.136109	0.069457	0.099367	0.049786	0.038824	0.207511	0.057359	-0.081512	0.240136	0.017533	0.007106	-0.007281	0.179974	0.049274	0.156271	0.313259	-0.194128	0.230218	0.298532	-0.251594	0.154374	0.559749	-0.345243	0.211254	0.577052	-0.274262	0.235677	
360	3.6000	-0.015829	0.109677	0.146060	-0.016033	-0.102072	0.229369	-0.006998	-0.002611	-0.014068	0.001738	-0.146677	-0.075279	0.160077	0.031404	0.186619	0.136122	0.069368	0.099388	0.049865	0.038832	0.207664	0.057447	-0.081508	0.240301	0.017372	0.007092	-0.007058	0.180133	0.049141	0.156165	0.313540	-0.194550	0.229334	0.297943	-0.252162	0.153709	0.559854	-0.345581	0.207588	0.577370	-0.274572	0.231767	
361	3.6100	-0.015835	0.109681	0.146316	-0.015939	-0.102052	0.229710	-0.007168	-0.002623	-0.013815	0.001518	-0.146711	-0.075023	0.160206	0.031327	0.186616	0.136126	0.069286	0.099420	0.049926	0.038845	0.207831	0.057555	-0.081542	0.240431	0.017199	0.007042	-0.006840	0.180292	0.049002	0.156078	0.313862	-0.194972	0.228359	0.297348	-0.252712	0.152920	0.559897	-0.345970	0.203666	0.577682	-0.274904	0.227594	
362	3.6200	-0.015852	0.109689	0.146589	-0.015858	-0.102009	0.230063	-0.007318	-0.002655	-0.013545	0.001325	-0.146731	-0.074766	0.160338	0.031230	0.186605	0.136128	0.069207	0.099453	0.049990	0.038852	0.208004	0.057675	-0.081583	0.240571	0.016955	0.006959	-0.006670	0.180456	0.048856	0.156006	0.314227	-0.195387	0.227291	0.296744	-0.253249	0.152034	0.559845	-0.346405	0.199559	0.577982	-0.275260	0.223125	
363	3.6300	-0.015874	0.109698	0.146875	-0.015782	-0.101972	0.230393	-0.007466	-0.002706	-0.013263	0.001158	-0.146737	-0.074509	0.160492	0.031131	0.186593	0.136129	0.069128	0.099481	0.050060	0.038856	0.208174	0.057795	-0.081591	0.240762	0.016635	0.006881	-0.006581	0.180622	0.048698	0.155934	0.314640	-0.195797	0.226115	0.296134	-0.253784	0.151073	0.559722	-0.346879	0.195256	0.578271	-0.275636	0.218318	
364	3.6400	-0.015894	0.109709	0.147165	-0.015707	-0.101962	0.230678	-0.007635	-0.002761	-0.012975	0.001014	-0.146733	-0.074252	0.160680	0.031044	0.186589	0.136125	0.069047	0.099503	0.050128	0.038873	0.208350	0.057918	-0.081553	0.241004	0.016304	0.006851	-0.006540	0.180784	0.048525	0.155848	0.315099	-0.196214	0.224814	0.295527	-0.254327	0.150039	0.559587	-0.347370	0.190655	0.578556	-0.276029	0.213157	
365	3.6500	-0.015908	0.109722	0.147458	-0.015631	-0.101986	0.230913	-0.007846	-0.002801	-0.012687	0.000884	-0.146724	-0.073992	0.160903	0.030969	0.186588	0.136114	0.068960	0.099523	0.050203	0.038916	0.208534	0.058052	-0.081485	0.241271	0.016020	0.006873	-0.006445	0.180941	0.048332	0.155740	0.315598	-0.196659	0.223377	0.294927	-0.254887	0.148923	0.559475	-0.347857	0.185675	0.578831	-0.276430	0.207670	
366	3.6600	-0.015917	0.109731	0.147758	-0.015549	-0.102038	0.231110	-0.008112	-0.002815	-0.012396	0.000761	-0.146714	-0.073728	0.161145	0.030888	0.186579	0.136098	0.068863	0.099548	0.050300	0.038972	0.208722	0.058192	-0.081404	0.241547	0.015778	0.006914	-0.006258	0.181098	0.048118	0.155613	0.316123	-0.197154	0.221802	0.294335	-0.255471	0.147705	0.559348	-0.348333	0.180367	0.579076	-0.276832	0.201914	
367	3.6700	-0.015916	0.109727	0.148075	-0.015454	-0.102109	0.231298	-0.008423	-0.002805	-0.012095	0.000635	-0.146707	-0.073457	0.161388	0.030786	0.186555	0.136083	0.068751	0.099587	0.050402	0.039017	0.208912	0.058339	-0.081322	0.241836	0.015537	0.006946	-0.006016	0.181266	0.047890	0.155483	0.316661	-0.197703	0.220098	0.293752	-0.256079	0.146367	0.559191	-0.348796	0.174808	0.579271	-0.277229	0.195939	
